<svg version="1.2" baseProfile="tiny" xmlns="http://www.w3.org/2000/svg" width="380" height="140" overflow="scroll">
    <g fill="#44668d"><path
        d="M44.8 115.3l1.7 6.1h.4l1.7-6.1L80.7 14h3.9L48.9 126.3h-4.3L8.9 14h3.9l32 101.3zM123.9 70.7h-12v55.6h-3.5V14h3.5v52.6h13L164.1 14h4.2l.1.4-40.6 54.9 45.6 56.6-.2.5h-4.1l-45.2-55.7zM229.3 80.1h-38.7v-4.2h38.7v4.2zM264.8 126.3h-3.5V14h3.5v112.3zM369.8 78.5c0 15.2-3.2 27.2-9.6 36.1-6.4 8.9-15.2 13.3-26.4 13.3s-20.1-4.4-26.5-13.3c-6.4-8.9-9.6-20.9-9.6-36.1V61.7c0-15.1 3.2-27.1 9.5-36 6.4-8.9 15.2-13.3 26.4-13.3s20 4.4 26.4 13.3c6.4 8.9 9.6 20.9 9.6 36v16.8zm-3.6-16.9c0-13.8-2.8-24.7-8.5-32.9-5.6-8.1-13.7-12.2-24.1-12.2-10.4 0-18.3 4.1-23.9 12.2-5.6 8.1-8.4 19.1-8.4 32.9v17c0 13.9 2.8 24.9 8.4 33 5.6 8.1 13.6 12.2 24 12.2s18.4-4 24-12.2c5.6-8.1 8.4-19.1 8.4-33.1V61.6z"/></g>
</svg>